<svg width="128" height="128" viewBox="0 0 128 128" fill="none" xmlns="http://www.w3.org/2000/svg">
    <g clip-path="url(#clip0_84_72)">
        <circle cx="64" cy="64" r="64" fill="#FFD6A8" />
        <path
            d="M108.421 88.264C94.0909 111.869 54.7035 109.621 31.0985 95.291C7.49351 80.961 8.60959 59.9754 22.9396 36.3704C37.2696 12.7654 52.2857 5.77987 75.8907 20.1099C99.4957 34.4399 122.751 64.659 108.421 88.264Z"
            fill="#5B8C00" />
        <path
            d="M49.1406 85.1426C49.1081 85.7806 48.9941 86.334 48.7988 86.8027C48.6035 87.265 48.3529 87.6621 48.0469 87.9941C47.7474 88.3197 47.4056 88.5866 47.0215 88.7949C46.6439 88.9967 46.2598 89.1562 45.8691 89.2734C45.485 89.3906 45.1042 89.4688 44.7266 89.5078C44.3555 89.5534 44.0267 89.5762 43.7402 89.5762C43.1868 89.5762 42.666 89.5599 42.1777 89.5273C41.696 89.4948 41.224 89.4395 40.7617 89.3613C40.8008 88.9512 40.8333 88.502 40.8594 88.0137C40.8854 87.5189 40.9082 87.0176 40.9277 86.5098C40.9473 85.9954 40.9603 85.4909 40.9668 84.9961C40.9733 84.5013 40.9798 84.0456 40.9863 83.6289C40.9928 83.2057 40.9961 82.8411 40.9961 82.5352C40.9961 82.2227 40.9961 81.998 40.9961 81.8613C40.9896 80.9303 40.9766 80.0319 40.957 79.166C40.9505 78.7949 40.9408 78.4173 40.9277 78.0332C40.9212 77.6426 40.9115 77.265 40.8984 76.9004C40.8919 76.5293 40.8822 76.181 40.8691 75.8555C40.8561 75.5234 40.8398 75.2305 40.8203 74.9766C41.0026 74.9505 41.2012 74.931 41.416 74.918C41.6374 74.9049 41.8555 74.8952 42.0703 74.8887C42.2917 74.8757 42.5065 74.8691 42.7148 74.8691C42.9297 74.8626 43.125 74.8594 43.3008 74.8594C44.0885 74.8594 44.8307 74.918 45.5273 75.0352C46.2305 75.1523 46.8424 75.3542 47.3633 75.6406C47.8906 75.9206 48.304 76.2949 48.6035 76.7637C48.9095 77.2259 49.0625 77.8053 49.0625 78.502C49.0299 78.9251 48.9258 79.3223 48.75 79.6934C48.6719 79.8561 48.5742 80.0221 48.457 80.1914C48.3464 80.3542 48.2064 80.5104 48.0371 80.6602C47.8678 80.8099 47.6693 80.9499 47.4414 81.0801C47.2135 81.2103 46.9531 81.3177 46.6602 81.4023C47.0833 81.513 47.4382 81.679 47.7246 81.9004C48.0111 82.1217 48.2454 82.3691 48.4277 82.6426C48.6165 82.9095 48.7565 83.1862 48.8477 83.4727C48.9453 83.7591 49.0137 84.0228 49.0527 84.2637C49.0983 84.5046 49.1243 84.7064 49.1309 84.8691C49.1374 85.0319 49.1406 85.123 49.1406 85.1426ZM46.3965 85.2402C46.377 84.6934 46.2858 84.2018 46.123 83.7656C46.0514 83.5833 45.9603 83.4043 45.8496 83.2285C45.7454 83.0462 45.6152 82.8867 45.459 82.75C45.3027 82.6068 45.1172 82.4928 44.9023 82.4082C44.6875 82.3236 44.4401 82.2812 44.1602 82.2812C44.0885 82.2812 44.0137 82.2845 43.9355 82.291C43.8574 82.2975 43.7728 82.3073 43.6816 82.3203L43.6035 87.8379C43.7988 87.877 43.9909 87.8965 44.1797 87.8965C44.4531 87.8965 44.6908 87.8607 44.8926 87.7891C45.1009 87.7109 45.2832 87.61 45.4395 87.4863C45.5957 87.3561 45.7259 87.2129 45.8301 87.0566C45.9408 86.9004 46.0319 86.7376 46.1035 86.5684C46.2728 86.1777 46.3704 85.735 46.3965 85.2402ZM46.3574 78.4434C46.3314 78.0788 46.2402 77.7533 46.084 77.4668C46.0189 77.3431 45.9342 77.2227 45.8301 77.1055C45.7324 76.9883 45.6087 76.8841 45.459 76.793C45.3158 76.7018 45.1432 76.627 44.9414 76.5684C44.7461 76.5098 44.5182 76.4805 44.2578 76.4805C44.0495 76.4805 43.8184 76.5 43.5645 76.5391L43.6816 80.6797H43.8965C44.3001 80.6797 44.6419 80.6276 44.9219 80.5234C45.2018 80.4128 45.4329 80.2793 45.6152 80.123C45.7975 79.9603 45.9375 79.7845 46.0352 79.5957C46.1393 79.4069 46.2142 79.2311 46.2598 79.0684C46.3053 78.8991 46.3314 78.7591 46.3379 78.6484C46.3509 78.5312 46.3574 78.4629 46.3574 78.4434ZM55.673 89.4004C55.634 89.1986 55.5982 88.9935 55.5656 88.7852C55.5331 88.5768 55.507 88.362 55.4875 88.1406C55.188 88.5833 54.8299 88.9219 54.4133 89.1562C53.9966 89.3971 53.5409 89.5176 53.0461 89.5176C52.7922 89.5176 52.5318 89.4753 52.2648 89.3906C51.9979 89.3125 51.7538 89.1725 51.5324 88.9707C51.3176 88.7689 51.1385 88.4954 50.9953 88.1504C50.8586 87.7988 50.7902 87.3561 50.7902 86.8223C50.7902 86.3796 50.8553 85.9954 50.9855 85.6699C51.1158 85.3379 51.285 85.0482 51.4934 84.8008C51.7017 84.5534 51.9361 84.3385 52.1965 84.1562C52.4569 83.974 52.7141 83.8112 52.968 83.668C53.2284 83.5247 53.4758 83.3913 53.7102 83.2676C53.9445 83.1439 54.1366 83.0202 54.2863 82.8965C54.5728 82.6686 54.8202 82.4277 55.0285 82.1738C55.2434 81.9134 55.4159 81.6432 55.5461 81.3633C55.5201 80.9141 55.4712 80.5462 55.3996 80.2598C55.3345 79.9668 55.2466 79.7357 55.1359 79.5664C55.0253 79.3906 54.8885 79.2702 54.7258 79.2051C54.5695 79.1335 54.3905 79.0977 54.1887 79.0977C53.8892 79.0977 53.6353 79.1628 53.427 79.293C53.2251 79.4232 53.0591 79.5794 52.9289 79.7617C53.0917 79.8659 53.2154 79.9766 53.3 80.0938C53.3911 80.2109 53.4595 80.3249 53.5051 80.4355C53.5572 80.5592 53.5865 80.6862 53.593 80.8164C53.593 81.2591 53.466 81.5977 53.2121 81.832C52.9647 82.0664 52.6457 82.1836 52.2551 82.1836C52.0533 82.1836 51.8677 82.138 51.6984 82.0469C51.5292 81.9492 51.3794 81.8158 51.2492 81.6465C51.1255 81.4772 51.0279 81.2754 50.9563 81.041C50.8846 80.8066 50.8488 80.5527 50.8488 80.2793C50.8488 80.0059 50.9107 79.7161 51.0344 79.4102C51.1581 79.1042 51.3566 78.821 51.6301 78.5605C51.9035 78.2936 52.2551 78.0755 52.6848 77.9062C53.1145 77.7305 53.6353 77.6426 54.2473 77.6426C54.8592 77.6426 55.3833 77.763 55.8195 78.0039C56.2557 78.2383 56.6138 78.554 56.8938 78.9512C57.1737 79.3418 57.3755 79.7943 57.4992 80.3086C57.6294 80.8229 57.6945 81.3535 57.6945 81.9004C57.6945 82.3105 57.6913 82.7565 57.6848 83.2383C57.6783 83.7201 57.675 84.2148 57.675 84.7227C57.675 85.1458 57.6783 85.569 57.6848 85.9922C57.6913 86.4154 57.7043 86.8255 57.7238 87.2227C57.7434 87.6133 57.7694 87.9844 57.802 88.3359C57.8345 88.681 57.8768 88.9902 57.9289 89.2637L55.673 89.4004ZM55.5266 83.6777C55.2987 83.9512 55.0546 84.1855 54.7941 84.3809C54.5988 84.5176 54.3872 84.6706 54.1594 84.8398C53.938 85.0091 53.7297 85.1882 53.5344 85.377C53.3456 85.5658 53.1861 85.7643 53.0559 85.9727C52.9322 86.1745 52.8703 86.3828 52.8703 86.5977C52.8703 86.8906 52.9419 87.1413 53.0852 87.3496C53.2284 87.5579 53.4302 87.6621 53.6906 87.6621C53.9315 87.6621 54.1464 87.597 54.3352 87.4668C54.524 87.3366 54.69 87.1771 54.8332 86.9883C54.9829 86.793 55.1066 86.5846 55.2043 86.3633C55.3085 86.1419 55.3898 85.9401 55.4484 85.7578L55.5266 83.6777ZM62.4984 74.1758C62.4333 75.1523 62.378 76.041 62.3324 76.8418C62.2868 77.6361 62.2478 78.3815 62.2152 79.0781C62.1892 79.7747 62.1697 80.4421 62.1566 81.0801C62.1436 81.7181 62.1371 82.3659 62.1371 83.0234C62.4496 82.6784 62.7393 82.3105 63.0063 81.9199C63.2732 81.5228 63.5141 81.1159 63.7289 80.6992C63.9503 80.276 64.1423 79.8464 64.3051 79.4102C64.4743 78.974 64.6176 78.5443 64.7348 78.1211L67.3813 78.3555C67.0818 78.987 66.7855 79.5469 66.4926 80.0352C66.1996 80.5234 65.9164 80.9531 65.643 81.3242C65.376 81.6888 65.1254 81.998 64.891 82.252C64.6632 82.5059 64.4581 82.7142 64.2758 82.877C64.5492 82.9681 64.7868 83.0755 64.9887 83.1992C65.1905 83.3229 65.3565 83.4401 65.4867 83.5508C65.643 83.681 65.7732 83.8177 65.8773 83.9609C66.001 84.1628 66.0987 84.3939 66.1703 84.6543C66.2484 84.9082 66.3135 85.1784 66.3656 85.4648C66.4242 85.7513 66.4796 86.0508 66.5316 86.3633C66.5902 86.6693 66.6618 86.9785 66.7465 87.291C66.8311 87.6035 66.9418 87.9128 67.0785 88.2188C67.2152 88.5182 67.3943 88.8047 67.6156 89.0781H65.018C64.8878 88.7461 64.7803 88.4108 64.6957 88.0723C64.6176 87.7337 64.5525 87.4277 64.5004 87.1543C64.4418 86.8353 64.3995 86.5228 64.3734 86.2168C64.3148 85.8197 64.2009 85.4648 64.0316 85.1523C63.96 85.0156 63.8689 84.8854 63.7582 84.7617C63.654 84.6315 63.5271 84.5176 63.3773 84.4199C63.2341 84.3158 63.0681 84.2344 62.8793 84.1758C62.6905 84.1107 62.4757 84.0781 62.2348 84.0781H62.1371C62.1371 84.8138 62.1404 85.5983 62.1469 86.4316C62.1599 87.265 62.1827 88.2025 62.2152 89.2441L59.7934 89.1953C59.852 88.2773 59.904 87.4408 59.9496 86.6855C59.9952 85.9303 60.031 85.224 60.057 84.5664C60.0896 83.9023 60.1124 83.2708 60.1254 82.6719C60.1449 82.0729 60.1547 81.4674 60.1547 80.8555C60.1547 80.3932 60.1514 79.918 60.1449 79.4297C60.1384 78.9349 60.1254 78.4173 60.1059 77.877C60.0928 77.3301 60.0733 76.7507 60.0473 76.1387C60.0212 75.5202 59.9919 74.8529 59.9594 74.1367L62.4984 74.1758ZM71.6383 74.1758C71.5732 75.1523 71.5178 76.041 71.4723 76.8418C71.4267 77.6361 71.3876 78.3815 71.3551 79.0781C71.329 79.7747 71.3095 80.4421 71.2965 81.0801C71.2835 81.7181 71.277 82.3659 71.277 83.0234C71.5895 82.6784 71.8792 82.3105 72.1461 81.9199C72.413 81.5228 72.6539 81.1159 72.8687 80.6992C73.0901 80.276 73.2822 79.8464 73.4449 79.4102C73.6142 78.974 73.7574 78.5443 73.8746 78.1211L76.5211 78.3555C76.2216 78.987 75.9254 79.5469 75.6324 80.0352C75.3395 80.5234 75.0562 80.9531 74.7828 81.3242C74.5159 81.6888 74.2652 81.998 74.0309 82.252C73.803 82.5059 73.5979 82.7142 73.4156 82.877C73.6891 82.9681 73.9267 83.0755 74.1285 83.1992C74.3303 83.3229 74.4964 83.4401 74.6266 83.5508C74.7828 83.681 74.913 83.8177 75.0172 83.9609C75.1409 84.1628 75.2385 84.3939 75.3102 84.6543C75.3883 84.9082 75.4534 85.1784 75.5055 85.4648C75.5641 85.7513 75.6194 86.0508 75.6715 86.3633C75.7301 86.6693 75.8017 86.9785 75.8863 87.291C75.971 87.6035 76.0816 87.9128 76.2184 88.2188C76.3551 88.5182 76.5341 88.8047 76.7555 89.0781H74.1578C74.0276 88.7461 73.9202 88.4108 73.8355 88.0723C73.7574 87.7337 73.6923 87.4277 73.6402 87.1543C73.5816 86.8353 73.5393 86.5228 73.5133 86.2168C73.4547 85.8197 73.3408 85.4648 73.1715 85.1523C73.0999 85.0156 73.0087 84.8854 72.898 84.7617C72.7939 84.6315 72.6669 84.5176 72.5172 84.4199C72.374 84.3158 72.2079 84.2344 72.0191 84.1758C71.8303 84.1107 71.6155 84.0781 71.3746 84.0781H71.277C71.277 84.8138 71.2802 85.5983 71.2867 86.4316C71.2997 87.265 71.3225 88.2025 71.3551 89.2441L68.9332 89.1953C68.9918 88.2773 69.0439 87.4408 69.0895 86.6855C69.135 85.9303 69.1708 85.224 69.1969 84.5664C69.2294 83.9023 69.2522 83.2708 69.2652 82.6719C69.2848 82.0729 69.2945 81.4674 69.2945 80.8555C69.2945 80.3932 69.2913 79.918 69.2848 79.4297C69.2783 78.9349 69.2652 78.4173 69.2457 77.877C69.2327 77.3301 69.2132 76.7507 69.1871 76.1387C69.1611 75.5202 69.1318 74.8529 69.0992 74.1367L71.6383 74.1758ZM82.8191 89.4004C82.7801 89.1986 82.7443 88.9935 82.7117 88.7852C82.6792 88.5768 82.6531 88.362 82.6336 88.1406C82.3341 88.5833 81.976 88.9219 81.5594 89.1562C81.1427 89.3971 80.687 89.5176 80.1922 89.5176C79.9383 89.5176 79.6779 89.4753 79.4109 89.3906C79.144 89.3125 78.8999 89.1725 78.6785 88.9707C78.4637 88.7689 78.2846 88.4954 78.1414 88.1504C78.0047 87.7988 77.9363 87.3561 77.9363 86.8223C77.9363 86.3796 78.0014 85.9954 78.1316 85.6699C78.2618 85.3379 78.4311 85.0482 78.6395 84.8008C78.8478 84.5534 79.0822 84.3385 79.3426 84.1562C79.603 83.974 79.8602 83.8112 80.1141 83.668C80.3745 83.5247 80.6219 83.3913 80.8563 83.2676C81.0906 83.1439 81.2827 83.0202 81.4324 82.8965C81.7189 82.6686 81.9663 82.4277 82.1746 82.1738C82.3895 81.9134 82.562 81.6432 82.6922 81.3633C82.6661 80.9141 82.6173 80.5462 82.5457 80.2598C82.4806 79.9668 82.3927 79.7357 82.282 79.5664C82.1714 79.3906 82.0346 79.2702 81.8719 79.2051C81.7156 79.1335 81.5366 79.0977 81.3348 79.0977C81.0353 79.0977 80.7814 79.1628 80.573 79.293C80.3712 79.4232 80.2052 79.5794 80.075 79.7617C80.2378 79.8659 80.3615 79.9766 80.4461 80.0938C80.5372 80.2109 80.6056 80.3249 80.6512 80.4355C80.7033 80.5592 80.7326 80.6862 80.7391 80.8164C80.7391 81.2591 80.6121 81.5977 80.3582 81.832C80.1108 82.0664 79.7918 82.1836 79.4012 82.1836C79.1993 82.1836 79.0138 82.138 78.8445 82.0469C78.6753 81.9492 78.5255 81.8158 78.3953 81.6465C78.2716 81.4772 78.174 81.2754 78.1023 81.041C78.0307 80.8066 77.9949 80.5527 77.9949 80.2793C77.9949 80.0059 78.0568 79.7161 78.1805 79.4102C78.3042 79.1042 78.5027 78.821 78.7762 78.5605C79.0496 78.2936 79.4012 78.0755 79.8309 77.9062C80.2605 77.7305 80.7814 77.6426 81.3934 77.6426C82.0053 77.6426 82.5294 77.763 82.9656 78.0039C83.4018 78.2383 83.7599 78.554 84.0398 78.9512C84.3198 79.3418 84.5216 79.7943 84.6453 80.3086C84.7755 80.8229 84.8406 81.3535 84.8406 81.9004C84.8406 82.3105 84.8374 82.7565 84.8309 83.2383C84.8243 83.7201 84.8211 84.2148 84.8211 84.7227C84.8211 85.1458 84.8243 85.569 84.8309 85.9922C84.8374 86.4154 84.8504 86.8255 84.8699 87.2227C84.8895 87.6133 84.9155 87.9844 84.948 88.3359C84.9806 88.681 85.0229 88.9902 85.075 89.2637L82.8191 89.4004ZM82.6727 83.6777C82.4448 83.9512 82.2007 84.1855 81.9402 84.3809C81.7449 84.5176 81.5333 84.6706 81.3055 84.8398C81.0841 85.0091 80.8758 85.1882 80.6805 85.377C80.4917 85.5658 80.3322 85.7643 80.202 85.9727C80.0783 86.1745 80.0164 86.3828 80.0164 86.5977C80.0164 86.8906 80.088 87.1413 80.2313 87.3496C80.3745 87.5579 80.5763 87.6621 80.8367 87.6621C81.0776 87.6621 81.2924 87.597 81.4813 87.4668C81.6701 87.3366 81.8361 87.1771 81.9793 86.9883C82.129 86.793 82.2527 86.5846 82.3504 86.3633C82.4546 86.1419 82.5359 85.9401 82.5945 85.7578L82.6727 83.6777ZM89.6055 73.9805C89.5664 74.7747 89.5306 75.5104 89.498 76.1875C89.4655 76.8646 89.4362 77.5026 89.4102 78.1016C89.3906 78.7005 89.3743 79.2702 89.3613 79.8105C89.3483 80.3509 89.3353 80.8848 89.3223 81.4121C89.3158 81.9395 89.3092 82.4701 89.3027 83.0039C89.3027 83.5378 89.3027 84.0977 89.3027 84.6836C89.3027 85.3346 89.3027 86.0312 89.3027 86.7734C89.3027 87.5156 89.3092 88.3392 89.3223 89.2441L87.1055 89.1953C87.1445 88.2122 87.1706 87.2454 87.1836 86.2949C87.1966 85.3379 87.2031 84.3581 87.2031 83.3555C87.2031 82.6849 87.1999 81.998 87.1934 81.2949C87.1868 80.5853 87.1771 79.8464 87.1641 79.0781C87.151 78.3034 87.1348 77.4896 87.1152 76.6367C87.1022 75.7839 87.0859 74.8789 87.0664 73.9219L89.6055 73.9805Z"
            fill="white" />
        <path
            d="M50.0781 71.4717C48.9707 71.4443 47.9385 71.4238 46.9814 71.4102C46.0381 71.4102 45.1426 71.4102 44.2949 71.4102C42.6406 71.4102 41.2529 71.4238 40.1318 71.4512C39.0244 71.4922 38.1221 71.5264 37.4248 71.5537C36.6045 71.5947 35.9551 71.6357 35.4766 71.6768C35.5723 70.7607 35.6543 69.8379 35.7227 68.9082C35.8047 67.9785 35.873 67.0625 35.9277 66.1602C35.9824 65.2578 36.0303 64.3896 36.0713 63.5557C36.1123 62.7217 36.1465 61.9355 36.1738 61.1973C36.2285 59.4746 36.2627 57.8271 36.2764 56.2549C36.2627 54.6143 36.2285 52.9326 36.1738 51.21C36.1465 50.4717 36.1123 49.6992 36.0713 48.8926C36.0303 48.0723 35.9824 47.2383 35.9277 46.3906C35.873 45.543 35.8047 44.6953 35.7227 43.8477C35.6543 42.9863 35.5723 42.1523 35.4766 41.3457C37.1855 41.4141 38.71 41.4688 40.0498 41.5098C41.4033 41.5371 42.6064 41.5508 43.6592 41.5508C44.6982 41.5508 45.5938 41.5439 46.3457 41.5303C47.0977 41.5029 47.7129 41.4756 48.1914 41.4482C48.752 41.4209 49.2168 41.3867 49.5859 41.3457C49.5859 41.332 49.5859 41.4551 49.5859 41.7148C49.5859 41.9746 49.5928 42.3164 49.6064 42.7402C49.6201 43.1641 49.6406 43.6426 49.668 44.1758C49.709 44.709 49.7637 45.249 49.832 45.7959C48.2461 45.6455 46.8584 45.5498 45.6689 45.5088C44.4795 45.4541 43.4609 45.4268 42.6133 45.4268C42.2578 45.4268 41.9434 45.4268 41.6699 45.4268C41.4102 45.4268 41.1641 45.4404 40.9316 45.4678C40.9043 46.9854 40.8838 48.4141 40.8701 49.7539C40.8564 51.0801 40.8496 52.3379 40.8496 53.5273C41.8066 53.5 42.6611 53.4658 43.4131 53.4248C44.165 53.3701 44.8076 53.3086 45.3408 53.2402C45.9561 53.1719 46.5029 53.0967 46.9814 53.0146C46.9678 53.1104 46.9609 53.2197 46.9609 53.3428C46.9473 53.4521 46.9404 53.582 46.9404 53.7324C46.9404 53.8828 46.9404 54.0537 46.9404 54.2451C46.9404 54.6826 46.9541 55.209 46.9814 55.8242C47.0088 56.4258 47.0635 57.0752 47.1455 57.7725C45.6689 57.5811 44.3975 57.4648 43.3311 57.4238C42.2646 57.3691 41.4375 57.3418 40.8496 57.3418C40.8496 58.7637 40.8564 60.0352 40.8701 61.1562C40.8838 62.2637 40.8975 63.2412 40.9111 64.0889C40.9385 64.9365 40.959 65.6611 40.9727 66.2627C41 66.8643 41.0273 67.3633 41.0547 67.7598C42.4492 67.7324 43.6934 67.6641 44.7871 67.5547C45.8809 67.4453 46.8037 67.3359 47.5557 67.2266C48.3076 67.1035 48.8818 66.9941 49.2783 66.8984C49.6748 66.8027 49.873 66.7412 49.873 66.7139C49.8594 66.7822 49.8525 66.8574 49.8525 66.9395C49.8389 67.0078 49.832 67.0967 49.832 67.2061C49.832 67.3154 49.832 67.4453 49.832 67.5957C49.832 67.9785 49.8457 68.4912 49.873 69.1338C49.9004 69.7764 49.9688 70.5557 50.0781 71.4717ZM61.6035 71.3281H61.0293C60.1816 71.3281 59.375 71.3691 58.6094 71.4512C57.8574 71.5469 57.0508 71.6768 56.1895 71.8408C56.3672 68.833 56.5039 66.0098 56.5996 63.3711C56.6953 60.7188 56.7432 58.1484 56.7432 55.6602C56.7432 52.4746 56.6611 49.3301 56.4971 46.2266L51.3291 46.5957C51.3154 46.1309 51.3018 45.707 51.2881 45.3242C51.2744 44.9277 51.2539 44.5518 51.2266 44.1963C51.1992 43.8271 51.165 43.458 51.124 43.0889C51.083 42.7061 51.0352 42.2822 50.9805 41.8174H53.4619C54.5557 41.8174 55.6221 41.8105 56.6611 41.7969C57.7139 41.7832 58.7598 41.7627 59.7988 41.7354C60.8516 41.708 61.9111 41.6738 62.9775 41.6328C64.0576 41.5918 65.1719 41.5371 66.3203 41.4688C66.252 42.166 66.2041 42.7607 66.1768 43.2529C66.1631 43.7314 66.1562 44.2305 66.1562 44.75V45.8369L61.1113 45.96C61.0703 47.2725 61.043 48.5645 61.0293 49.8359C61.0293 51.0938 61.0293 52.3652 61.0293 53.6504C61.0293 56.6309 61.0771 59.584 61.1729 62.5098C61.2686 65.4355 61.4121 68.375 61.6035 71.3281ZM73.8672 71.2051L68.4531 71.7588C68.4805 70.8428 68.501 69.8926 68.5146 68.9082C68.542 67.9102 68.5625 66.9189 68.5762 65.9346C68.5898 64.9502 68.6035 63.9863 68.6172 63.043C68.6309 62.0859 68.6377 61.1836 68.6377 60.3359C68.6514 58.3398 68.6582 56.3779 68.6582 54.4502C68.6445 52.7275 68.624 51.0596 68.5967 49.4463C68.583 48.7627 68.5625 48.0586 68.5352 47.334C68.5215 46.6094 68.501 45.8984 68.4736 45.2012C68.4463 44.5039 68.4121 43.8477 68.3711 43.2324C68.3438 42.6035 68.3027 42.043 68.248 41.5508L73.416 41.3047C73.3887 42.1523 73.3613 43.0273 73.334 43.9297C73.3203 44.8184 73.3066 45.707 73.293 46.5957C73.2793 47.4707 73.2656 48.3184 73.252 49.1387C73.252 49.959 73.252 50.7246 73.252 51.4355C73.252 55.0039 73.293 58.4082 73.375 61.6484C73.4707 64.875 73.6348 68.0605 73.8672 71.2051ZM73.0264 38.167C73.0264 38.4541 72.9648 38.7275 72.8418 38.9873C72.7324 39.2471 72.5752 39.4795 72.3701 39.6846C72.1787 39.876 71.9463 40.0264 71.6729 40.1357C71.4131 40.2451 71.1328 40.2998 70.832 40.2998C70.5449 40.2998 70.2646 40.2451 69.9912 40.1357C69.7314 40.0264 69.499 39.876 69.2939 39.6846C69.1025 39.4795 68.9453 39.2471 68.8223 38.9873C68.7129 38.7275 68.6582 38.4541 68.6582 38.167C68.6582 37.8662 68.7129 37.5859 68.8223 37.3262C68.9453 37.0527 69.1025 36.8203 69.2939 36.6289C69.499 36.4238 69.7314 36.2666 69.9912 36.1572C70.2646 36.0342 70.5449 35.9727 70.832 35.9727C71.1328 35.9727 71.4131 36.0342 71.6729 36.1572C71.9463 36.2666 72.1787 36.4238 72.3701 36.6289C72.5752 36.8203 72.7324 37.0527 72.8418 37.3262C72.9648 37.5859 73.0264 37.8662 73.0264 38.167ZM82.8086 71.7178C82.4941 71.7178 82.1865 71.7109 81.8857 71.6973C81.5986 71.6836 81.3047 71.6768 81.0039 71.6768C80.4297 71.6768 79.8896 71.6836 79.3838 71.6973C78.8779 71.7109 78.4404 71.7314 78.0713 71.7588C77.6201 71.7861 77.2168 71.8135 76.8613 71.8408C77.0527 69.79 77.2031 67.7939 77.3125 65.8525C77.4219 63.9111 77.5039 62.1748 77.5586 60.6436C77.6133 58.8662 77.6475 57.1777 77.6611 55.5781C77.6611 54.0195 77.6338 52.4268 77.5791 50.7998C77.5518 50.1025 77.5176 49.3711 77.4766 48.6055C77.4492 47.8262 77.4082 47.04 77.3535 46.2471C77.3125 45.4404 77.251 44.6338 77.1689 43.8271C77.1006 43.0205 77.0254 42.2344 76.9434 41.4688C77.5176 41.5098 78.0508 41.5371 78.543 41.5508C79.0352 41.5508 79.4932 41.5508 79.917 41.5508C80.3545 41.5508 80.751 41.5508 81.1064 41.5508C81.4619 41.5371 81.7627 41.5234 82.0088 41.5098C82.2959 41.4961 82.5488 41.4824 82.7676 41.4688C82.6445 43.1777 82.5488 44.8525 82.4805 46.4932C82.4121 48.1338 82.3643 49.6104 82.3369 50.9229C82.2959 52.4541 82.2754 53.9102 82.2754 55.291V56.542C83.123 55.5029 83.8955 54.3818 84.5928 53.1787C85.3037 51.9756 85.9121 50.7314 86.418 49.4463C86.9238 48.1475 87.3135 46.835 87.5869 45.5088C87.874 44.1826 88.0176 42.877 88.0176 41.5918V40.9355L94.9902 41.5508C93.7871 43.6699 92.7412 45.543 91.8525 47.1699C90.9639 48.7832 90.1982 50.1777 89.5557 51.3535C88.9268 52.5293 88.4141 53.5068 88.0176 54.2861C87.6211 55.0654 87.3135 55.6807 87.0947 56.1318C88.0654 56.3916 88.8447 56.7539 89.4326 57.2188C90.0342 57.6699 90.5059 58.1963 90.8477 58.7979C91.1895 59.3994 91.4287 60.0625 91.5654 60.7871C91.7158 61.498 91.832 62.2363 91.9141 63.002C91.9961 63.7676 92.0713 64.54 92.1396 65.3193C92.2217 66.0986 92.3652 66.8574 92.5703 67.5957C92.6797 68.0195 92.8369 68.457 93.042 68.9082C93.2197 69.3047 93.4521 69.749 93.7393 70.2412C94.0264 70.7197 94.3887 71.2119 94.8262 71.7178L89.043 71.8408C88.7285 71.5264 88.4688 71.1094 88.2637 70.5898C88.0723 70.0703 87.9219 69.5576 87.8125 69.0518C87.6758 68.4639 87.5801 67.8418 87.5254 67.1855C87.457 66.4336 87.4092 65.7021 87.3818 64.9912C87.3682 64.2666 87.3271 63.583 87.2588 62.9404C87.2041 62.2979 87.1084 61.71 86.9717 61.1768C86.835 60.6299 86.6162 60.165 86.3154 59.7822C86.0146 59.3857 85.6113 59.0781 85.1055 58.8594C84.6133 58.6406 83.9775 58.5312 83.1982 58.5312C83.0479 58.5312 82.8975 58.5381 82.7471 58.5518C82.5967 58.5654 82.4395 58.5859 82.2754 58.6133C82.3164 60.0898 82.3711 61.9561 82.4395 64.2119C82.5215 66.4541 82.6445 68.9561 82.8086 71.7178Z"
            fill="white" />
    </g>
    <defs>
        <clipPath id="clip0_84_72">
            <rect width="128" height="128" fill="white" />
        </clipPath>
    </defs>
</svg>
    